<svg width="16" height="16" viewBox="0 0 16 16" fill="none" xmlns="http://www.w3.org/2000/svg">
<g clip-path="url(#clip0_372_16432)">
<path d="M14.0938 7.98535C14.0938 5.81738 12.9219 3.8252 11.0469 2.71191C9.14258 1.62793 6.82812 1.62793 4.95312 2.71191C3.04883 3.8252 1.90625 5.81738 1.90625 7.98535C1.90625 10.1826 3.04883 12.1748 4.95312 13.2881C6.82812 14.3721 9.14258 14.3721 11.0469 13.2881C12.9219 12.1748 14.0938 10.1826 14.0938 7.98535ZM0.5 7.98535C0.5 5.31934 1.90625 2.8584 4.25 1.51074C6.56445 0.163086 9.40625 0.163086 11.75 1.51074C14.0645 2.8584 15.5 5.31934 15.5 7.98535C15.5 10.6807 14.0645 13.1416 11.75 14.4893C9.40625 15.8369 6.56445 15.8369 4.25 14.4893C1.90625 13.1416 0.5 10.6807 0.5 7.98535ZM10.6074 8.4834L7.56055 11.5303L7.0625 12.0283L6.06641 11.0322L6.56445 10.5342L9.11328 7.98535L6.56445 5.43652L6.06641 4.93848L7.0625 3.94238L7.56055 4.44043L10.6074 7.4873L11.1055 7.98535L10.6074 8.4834Z" fill="black"/>
</g>
<defs>
<clipPath id="clip0_372_16432">
<rect width="16" height="16" fill="white"/>
</clipPath>
</defs>
</svg>
