<svg width="16" height="16" viewBox="0 0 16 16" fill="none" xmlns="http://www.w3.org/2000/svg">
<path d="M11.7812 7.09375C11.7812 5.42383 10.873 3.90039 9.4375 3.05078C7.97266 2.20117 6.18555 2.20117 4.75 3.05078C3.28516 3.90039 2.40625 5.42383 2.40625 7.09375C2.40625 8.79297 3.28516 10.3164 4.75 11.166C6.18555 12.0156 7.97266 12.0156 9.4375 11.166C10.873 10.3164 11.7812 8.79297 11.7812 7.09375ZM10.873 11.8984C9.81836 12.7188 8.5 13.1875 7.09375 13.1875C3.72461 13.1875 1 10.4629 1 7.09375C1 3.75391 3.72461 1 7.09375 1C10.4336 1 13.1875 3.75391 13.1875 7.09375C13.1875 8.5293 12.6895 9.84766 11.8691 10.9023L14.502 13.5352L15 14.0332L14.0039 15L13.5059 14.502L10.873 11.8691V11.8984Z" fill="black"/>
</svg>
