<svg width="16" height="16" viewBox="0 0 16 16" fill="none" xmlns="http://www.w3.org/2000/svg">
<path d="M5.1875 4.71875C5.1875 5.74414 5.71484 6.65234 6.59375 7.17969C7.44336 7.67773 8.52734 7.67773 9.40625 7.17969C10.2559 6.65234 10.8125 5.74414 10.8125 4.71875C10.8125 3.72266 10.2559 2.81445 9.40625 2.28711C8.52734 1.78906 7.44336 1.78906 6.59375 2.28711C5.71484 2.81445 5.1875 3.72266 5.1875 4.71875ZM8.70312 8.87891V13.7969V14.5H7.29688V13.7969V8.87891C5.27539 8.55664 3.78125 6.82812 3.78125 4.71875C3.78125 2.4043 5.65625 0.5 8 0.5C10.3145 0.5 12.2188 2.4043 12.2188 4.71875C12.2188 6.82812 10.6953 8.55664 8.70312 8.87891Z" fill="black"/>
</svg>
