<svg width="16" height="16" viewBox="0 0 16 16" fill="none" xmlns="http://www.w3.org/2000/svg">
<path d="M0.90759 1.86272L15.6312 13.2086L16 13.4988L15.4326 14.2533L15.0638 13.9631L0.340208 2.61719L-0.00022158 2.32701L0.538792 1.60156L0.90759 1.86272ZM14.454 10.7857L13.5461 10.0312V2.42857H6.28365H4.46803H4.1276L2.96446 1.5H13.5461H14.454V2.42857V10.7857ZM12.6383 9.3058L11.7305 8.58036V4.28571H8.55318V6.02679L7.64537 5.27232V3.82143V3.35714H8.09927H12.1844H12.6383V3.82143V9.3058ZM9.74468 11.7143L10.9078 12.6429H4.01412H3.56022V12.1786V6.72321L4.46803 7.44866V11.7143H9.74468ZM2.6524 5.96875V13.5714H12.0426L13.2057 14.5H2.6524H1.74459V13.5714V5.2433L2.6524 5.96875Z" fill="black"/>
</svg>
