<svg width="16" height="16" viewBox="0 0 16 16" fill="none" xmlns="http://www.w3.org/2000/svg">
<path d="M14.5625 4.25C14.5625 5.80273 13.3027 7.0625 11.75 7.0625C10.9004 7.0625 10.1387 6.71094 9.61133 6.0957L6.97461 7.41406C7.0332 7.61914 7.0625 7.82422 7.0625 8C7.0625 8.20508 7.0332 8.41016 6.97461 8.61523L9.61133 9.9043C10.1387 9.31836 10.9004 8.9375 11.75 8.9375C13.3027 8.9375 14.5625 10.1973 14.5625 11.75C14.5625 13.3027 13.3027 14.5625 11.75 14.5625C10.1973 14.5625 8.9375 13.3027 8.9375 11.75C8.9375 11.5742 8.9375 11.3691 8.99609 11.1641L6.35938 9.8457C5.83203 10.4609 5.07031 10.8125 4.25 10.8125C2.69727 10.8125 1.4375 9.55273 1.4375 8C1.4375 6.44727 2.69727 5.1875 4.25 5.1875C5.07031 5.1875 5.83203 5.56836 6.35938 6.1543L8.99609 4.86523C8.9375 4.66016 8.9375 4.45508 8.9375 4.25C8.9375 2.69727 10.1973 1.4375 11.75 1.4375C13.3027 1.4375 14.5625 2.69727 14.5625 4.25ZM4.25 9.40625C4.74805 9.40625 5.1875 9.14258 5.45117 8.70312C5.71484 8.29297 5.71484 7.73633 5.45117 7.29688C5.1875 6.88672 4.74805 6.59375 4.25 6.59375C3.72266 6.59375 3.2832 6.88672 3.01953 7.29688C2.75586 7.73633 2.75586 8.29297 3.01953 8.70312C3.2832 9.14258 3.72266 9.40625 4.25 9.40625ZM13.1562 4.25C13.1562 3.75195 12.8633 3.3125 12.4531 3.04883C12.0137 2.78516 11.457 2.78516 11.0469 3.04883C10.6074 3.3125 10.3438 3.75195 10.3438 4.25C10.3438 4.77734 10.6074 5.2168 11.0469 5.48047C11.457 5.74414 12.0137 5.74414 12.4531 5.48047C12.8633 5.2168 13.1562 4.77734 13.1562 4.25ZM11.75 13.1562C12.248 13.1562 12.6875 12.8926 12.9512 12.4531C13.2148 12.043 13.2148 11.4863 12.9512 11.0469C12.6875 10.6367 12.248 10.3438 11.75 10.3438C11.2227 10.3438 10.7832 10.6367 10.5195 11.0469C10.2559 11.4863 10.2559 12.043 10.5195 12.4531C10.7832 12.8926 11.2227 13.1562 11.75 13.1562Z" fill="black"/>
</svg>
