<svg width="16" height="16" viewBox="0 0 16 16" fill="none" xmlns="http://www.w3.org/2000/svg">
<g clip-path="url(#clip0_177_174937)">
<path d="M8 0.5C12.1129 0.5 15.5 3.8871 15.5 8C15.5 12.1431 12.1129 15.5 8 15.5C3.85685 15.5 0.5 12.1431 0.5 8C0.5 3.8871 3.85685 0.5 8 0.5ZM11.4476 5.61089C11.4778 5.52016 11.4778 5.42944 11.4476 5.30847C11.4476 5.24798 11.3871 5.15726 11.3569 5.12702C11.2661 5.03629 11.1149 5.03629 11.0544 5.03629C10.7823 5.03629 10.3286 5.1875 8.24194 6.06452C7.51613 6.36694 6.06452 6.97177 3.8871 7.93952C3.52419 8.09073 3.34274 8.21169 3.3125 8.3629C3.28226 8.60484 3.6754 8.69556 4.12903 8.84677C4.52218 8.96774 5.03629 9.11895 5.30847 9.11895C5.5504 9.11895 5.82258 9.02823 6.125 8.81653C8.15121 7.4254 9.20968 6.72984 9.27016 6.72984C9.33064 6.72984 9.39113 6.6996 9.42137 6.72984C9.48185 6.79032 9.48185 6.85081 9.45161 6.88105C9.42137 7.03226 7.51613 8.78629 7.39516 8.90726C6.97177 9.33064 6.4879 9.60282 7.24395 10.0867C7.87903 10.5101 8.24194 10.7823 8.90726 11.2056C9.33064 11.4778 9.66331 11.8105 10.0867 11.7802C10.2984 11.75 10.5101 11.5685 10.6008 10.994C10.873 9.69355 11.3569 6.79032 11.4476 5.61089Z" fill="#282828"/>
</g>
<defs>
<clipPath id="clip0_177_174937">
<rect width="16" height="16" fill="white"/>
</clipPath>
</defs>
</svg>
