<svg width="16" height="16" viewBox="0 0 16 16" fill="none" xmlns="http://www.w3.org/2000/svg">
<path d="M15.4583 2.39798C15.5139 2.61653 15.5139 2.78044 15.4583 2.94435C15.2915 5.07519 14.402 10.3203 13.9016 12.6697C13.7348 13.7078 13.3457 14.0356 12.9565 14.0903C12.3542 14.1326 11.8517 13.7822 11.2946 13.3937C11.1317 13.2802 10.9643 13.1634 10.7882 13.0522C10.0403 12.5844 9.50023 12.2188 8.92651 11.8304C8.56206 11.5837 8.18402 11.3278 7.73048 11.0306C6.52344 10.2714 7.0355 9.8007 7.70091 9.18899C7.80172 9.09632 7.90605 9.00041 8.00845 8.89977C8.05287 8.85612 8.22813 8.69479 8.48064 8.46233C9.49242 7.53091 11.7445 5.45772 11.789 5.2391C11.8446 5.18446 11.8446 5.07519 11.7334 4.96592C11.6975 4.93063 11.6384 4.94092 11.5711 4.95263C11.5342 4.95906 11.4948 4.96592 11.4554 4.96592C11.3442 4.96592 9.39835 6.22256 5.67343 8.73586C5.11747 9.11832 4.61711 9.28223 4.17234 9.28223C3.67198 9.28223 2.72685 9.00905 2.0041 8.7905C1.90002 8.75641 1.79768 8.72401 1.69837 8.69258C1.00189 8.47215 0.454352 8.29885 0.503009 7.91631C0.558605 7.64312 0.892181 7.42458 1.55933 7.15139C5.56224 5.40301 8.23084 4.31027 9.56514 3.7639C13.4013 2.17943 14.2352 1.90625 14.7356 1.90625C14.8467 1.90625 15.1247 1.90625 15.2915 2.07016C15.3471 2.1248 15.4583 2.28871 15.4583 2.39798Z" fill="#282828"/>
</svg>
