<svg width="16" height="16" viewBox="0 0 16 16" fill="none" xmlns="http://www.w3.org/2000/svg">
<path d="M1.5 6.06934L2.77246 7.18262C3.56929 7.87984 3.56928 9.12016 2.77246 9.81738L1.5 10.9297V12.5H14.5V10.9297L13.2275 9.81738C12.4307 9.12017 12.4307 7.87984 13.2275 7.18262L14.5 6.06934V4.5H1.5V6.06934ZM16 6.2959C16 6.58426 15.8752 6.85894 15.6582 7.04883L14.2148 8.31152C14.101 8.41113 14.101 8.58887 14.2148 8.68848L15.6582 9.95117C15.8752 10.1411 16 10.4157 16 10.7041V13.5C16 13.7761 15.7761 14 15.5 14H0.5C0.223858 14 0 13.7761 0 13.5V10.7041C0 10.4157 0.124782 10.1411 0.341797 9.95117L1.78516 8.68848C1.88477 8.60132 1.89699 8.45452 1.82227 8.35254L1.78516 8.31152L0.341797 7.04883C0.124782 6.85894 0 6.58426 0 6.2959V3.5C0 3.22386 0.223858 3 0.5 3H15.5C15.7761 3 16 3.22386 16 3.5V6.2959Z" fill="black"/>
</svg>
