<svg width="16" height="16" viewBox="0 0 16 16" fill="none" xmlns="http://www.w3.org/2000/svg">
<g clip-path="url(#clip0_64_666)">
<path d="M1.19922 6.25V5H2.42969L13.9688 5.00001H15.1992V6.25001V6.50001V7.75001C14.5071 7.75001 13.9688 8.32292 13.9688 9.00001C13.9688 9.70313 14.5071 10.25 15.1992 10.25V11.5V11.75V13H13.9688L2.42969 13H1.19922V11.75V11.5V10.25C1.86572 10.25 2.42969 9.70312 2.42969 9C2.42969 8.32291 1.86572 7.75 1.19922 7.75V6.5V6.25ZM2.42969 6.83854C3.14746 7.28125 3.66016 8.08854 3.66016 9C3.66016 9.93749 3.14746 10.7448 2.42969 11.1875V11.75L13.9688 11.75V11.1875C13.2253 10.7448 12.7383 9.9375 12.7383 9.00001C12.7383 8.08855 13.2253 7.28126 13.9688 6.83855V6.25001L2.42969 6.25V6.83854Z" fill="black"/>
<g clip-path="url(#clip1_64_666)">
<path d="M-0.116117 10.7834L-1 9.89954L-0.129927 9.02946L8.02943 0.870121L8.8995 4.86523e-05L9.78338 0.883931L9.96016 1.06071L10.844 1.94459C10.3546 2.43401 10.3791 3.21978 10.8579 3.69854C11.355 4.19573 12.1224 4.20177 12.6118 3.71235L13.4957 4.59624L13.6725 4.77301L14.5563 5.6569L13.6863 6.52697L5.52692 14.6863L4.65685 15.5564L3.77296 14.6725L3.59619 14.4957L2.71231 13.6118C3.1836 13.1406 3.19568 12.3551 2.6985 11.8579C2.21973 11.3791 1.41583 11.3728 0.944541 11.8441L0.0606585 10.9602L-0.116117 10.7834ZM1.17012 10.3295C1.9907 10.135 2.92407 10.3433 3.56857 10.9878C4.23148 11.6507 4.43979 12.5841 4.24529 13.4047L4.64304 13.8024L12.8024 5.64309L12.4046 5.24534C11.5659 5.45797 10.6507 5.23153 9.98778 4.56862C9.34328 3.92412 9.11685 3.00888 9.32947 2.17016L8.91331 1.754L0.753955 9.91335L1.17012 10.3295Z" fill="black"/>
</g>
</g>
<defs>
<clipPath id="clip0_64_666">
<rect width="16" height="16" fill="white"/>
</clipPath>
<clipPath id="clip1_64_666">
<rect width="16" height="5" fill="white" transform="translate(-1)"/>
</clipPath>
</defs>
</svg>
