<svg width="16" height="16" viewBox="0 0 16 16" fill="none" xmlns="http://www.w3.org/2000/svg">
<g clip-path="url(#clip0_64_704)">
<path d="M0.702393 7.21785L-0.000732422 6L1.21712 5.29688L9.17373 0.703135L10.3916 1.00399e-05L11.0947 1.21786L11.6884 2.24625L12.3916 3.4641C11.7065 3.85961 11.496 4.7254 11.8768 5.38507C12.2724 6.07011 13.1128 6.2953 13.7978 5.89979L14.5009 7.11764L15.0947 8.14605L15.7978 9.3639L14.58 10.067L6.62336 14.6608L5.40551 15.3639L4.70239 14.146L4.10863 13.1176L3.40551 11.8998C4.06518 11.5189 4.31574 10.6639 3.92023 9.97881C3.53937 9.31914 2.65893 9.08323 1.99926 9.46409L1.29613 8.24624L0.702393 7.21785ZM2.70441 7.87295C3.66385 7.89411 4.62539 8.38767 5.13808 9.27569C5.66543 10.1891 5.61209 11.2686 5.1507 12.11L5.92024 13.4429L13.8768 8.84918L13.1073 7.51631C12.1225 7.50979 11.1863 7.00158 10.659 6.0882C10.1463 5.20018 10.1743 4.13534 10.661 3.27921L9.87685 1.92098L1.92024 6.51472L2.70441 7.87295Z" fill="black"/>
</g>
<defs>
<clipPath id="clip0_64_704">
<rect width="16" height="16" fill="white"/>
</clipPath>
</defs>
</svg>
