<svg width="16" height="16" viewBox="0 0 16 16" fill="none" xmlns="http://www.w3.org/2000/svg">
<path fill-rule="evenodd" clip-rule="evenodd" d="M0.0625 2.375H1.46875H14.5312H15.9375V3.78125V5.1875V6.59375C15.1465 6.59375 14.5312 7.23828 14.5312 8C14.5312 8.79102 15.1465 9.40625 15.9375 9.40625V10.8125V12.2188V13.625H14.5312H1.46875H0.0625V12.2188V10.8125V9.40625C0.824219 9.40625 1.46875 8.79102 1.46875 8C1.46875 7.23828 0.824219 6.59375 0.0625 6.59375V5.1875V3.78125V2.375ZM5.21875 5.1875H3.8125V6.59375V9.40625V10.8125H5.21875H10.7812H12.1875V9.40625V6.59375V5.1875H10.7812H5.21875Z" fill="black"/>
</svg>
