<svg width="16" height="16" viewBox="0 0 16 16" fill="none" xmlns="http://www.w3.org/2000/svg">
<path d="M0.5 3.78125V2.375H1.90625L14.0938 2.37501H15.5V3.78126V5.18751V6.59376C14.709 6.59376 14.0938 7.23829 14.0938 8.00001C14.0938 8.79103 14.709 9.40626 15.5 9.40626V10.8125V12.2188V13.625H14.0938L1.90625 13.625H0.5V12.2188V10.8125V9.40625C1.26172 9.40625 1.90625 8.79102 1.90625 8C1.90625 7.23828 1.26172 6.59375 0.5 6.59375V5.1875V3.78125ZM1.90625 5.56836C2.72656 6.06641 3.3125 6.97461 3.3125 8C3.3125 9.05469 2.72656 9.96289 1.90625 10.4609V12.2188L14.0938 12.2188V10.4609C13.2441 9.9629 12.6875 9.0547 12.6875 8.00001C12.6875 6.97462 13.2441 6.06642 14.0938 5.56837V3.78126L1.90625 3.78125V5.56836Z" fill="black"/>
</svg>
