<svg width="16" height="16" viewBox="0 0 16 16" fill="none" xmlns="http://www.w3.org/2000/svg">
<g clip-path="url(#clip0_64_678)">
<path d="M14.375 4.375H3.875V10.375H14.375V9.10938C13.7891 8.75781 13.4375 8.10156 13.4375 7.375C13.4375 6.67188 13.7891 6.01562 14.375 5.66406V4.375ZM15.5 5.3125V6.4375C14.9609 6.4375 14.5625 6.85938 14.5625 7.375C14.5625 7.91406 14.9609 8.3125 15.5 8.3125V9.4375V10.375V11.5H14.375H3.875H2.75V10.375V4.375V3.25H3.875H14.375H15.5V4.375V5.3125ZM12.125 5.5C11.9141 5.5 11.75 5.33594 11.75 5.125C11.75 4.9375 11.9141 4.75 12.125 4.75C12.3125 4.75 12.5 4.9375 12.5 5.125C12.5 5.33594 12.3125 5.5 12.125 5.5ZM12.125 7C11.9141 7 11.75 6.83594 11.75 6.625C11.75 6.4375 11.9141 6.25 12.125 6.25C12.3125 6.25 12.5 6.4375 12.5 6.625C12.5 6.83594 12.3125 7 12.125 7ZM12.5 8.125C12.5 8.33594 12.3125 8.5 12.125 8.5C11.9141 8.5 11.75 8.33594 11.75 8.125C11.75 7.9375 11.9141 7.75 12.125 7.75C12.3125 7.75 12.5 7.9375 12.5 8.125ZM12.125 10C11.9141 10 11.75 9.83594 11.75 9.625C11.75 9.4375 11.9141 9.25 12.125 9.25C12.3125 9.25 12.5 9.4375 12.5 9.625C12.5 9.83594 12.3125 10 12.125 10ZM1.625 5.3125V12.625H12.6875H13.25V13.75H12.6875H1.0625H0.5V13.1875V5.3125V4.75H1.625V5.3125Z" fill="black"/>
</g>
<defs>
<clipPath id="clip0_64_678">
<rect width="16" height="16" fill="white"/>
</clipPath>
</defs>
</svg>
