<svg width="16" height="16" viewBox="0 0 16 16" fill="none" xmlns="http://www.w3.org/2000/svg">
<path d="M14.4225 15H13.1205H2.90454H1.6025L2.10329 13.7812L3.60563 10.125H7.11111L8.6385 11.3438H4.40689L3.40532 13.7812H11.6933L13.2207 15H14.4225ZM9.56495 8.95703L15.5243 13.6797L16 14.0352L15.2739 15L14.7981 14.6445L0.475743 3.3457L0 2.96484L0.726135 2.02539L1.20188 2.38086L4.45696 4.94531C4.78247 3.26953 6.25978 2 8.01252 2C9.99061 2 11.6182 3.65039 11.6182 5.65625C11.6182 7.12891 10.7668 8.37305 9.56495 8.95703ZM8.41315 8.06836C9.53991 7.86523 10.4163 6.875 10.4163 5.65625C10.4163 4.31055 9.33959 3.21875 8.01252 3.21875C6.68545 3.21875 5.60876 4.31055 5.60876 5.65625C5.60876 5.73242 5.60876 5.7832 5.60876 5.85938L8.41315 8.06836Z" fill="black"/>
</svg>
