<svg width="16" height="16" viewBox="0 0 16 16" fill="none" xmlns="http://www.w3.org/2000/svg">
<path d="M13.6667 14.1282H2.30769H1.4359L1.76923 13.3077L3.48718 9.20513H7.41026L8.46154 10.0256H4.02564L2.66667 13.3077H12.6154L13.6667 14.1282ZM11.6923 4.69231C11.6923 5.79487 11.2051 6.76923 10.4615 7.4359L9.82051 6.92308C10.4615 6.38462 10.8718 5.58974 10.8718 4.69231C10.8718 3.12821 9.5641 1.82051 8 1.82051C6.84615 1.82051 5.87179 2.48718 5.41026 3.4359L4.74359 2.92308C5.38462 1.79487 6.58974 1 8 1C10.0256 1 11.6923 2.66667 11.6923 4.69231ZM0.820513 1.46154L15.6667 13.0256L16 13.2821L15.4872 13.9487L15.1538 13.6923L0.307692 2.12821L0 1.87179L0.487179 1.23077L0.820513 1.46154Z" fill="black"/>
</svg>
