<svg width="16" height="16" viewBox="0 0 16 16" fill="none" xmlns="http://www.w3.org/2000/svg">
<path d="M7.68404 4.76468C7.68404 4.05694 7.27962 3.39976 6.67299 3.02061C6.04107 2.66674 5.2575 2.66674 4.65087 3.02061C4.01896 3.39976 3.63981 4.05694 3.63981 4.76468C3.63981 5.4977 4.01896 6.15489 4.65087 6.53404C5.2575 6.88791 6.04107 6.88791 6.67299 6.53404C7.27962 6.15489 7.68404 5.4977 7.68404 4.76468ZM1.64297 13.2576H9.68089L8.79621 10.4266H2.50237L1.64297 13.2576ZM9.70616 9.21334L10.9447 13.2576L11.3239 14.4708H10.0348H1.26382H0L0.35387 13.2576L1.61769 9.21334H5.66193H9.70616ZM5.66193 1.5293C6.79937 1.5293 7.86098 2.16121 8.44234 3.14699C9.0237 4.15805 9.0237 5.3966 8.44234 6.38238C7.86098 7.39344 6.79937 8.00007 5.66193 8.00007C4.49921 8.00007 3.4376 7.39344 2.85624 6.38238C2.27488 5.3966 2.27488 4.15805 2.85624 3.14699C3.4376 2.16121 4.49921 1.5293 5.66193 1.5293ZM16 5.57353L15.5703 6.00323L14.3823 7.19122L15.5703 8.37922L16 8.80892L15.1659 9.66832L14.7362 9.23862L13.5482 8.05062L12.3602 9.23862L11.9305 9.66832L11.0711 8.80892L11.5008 8.37922L12.6888 7.19122L11.5008 6.00323L11.0711 5.57353L11.9305 4.73941L12.3602 5.16911L13.5482 6.3571L14.7362 5.16911L15.1659 4.73941L16 5.57353Z" fill="black"/>
</svg>
